<svg xmlns:xlink="http://www.w3.org/1999/xlink" height="480"
  id="flag-icon-css-ph" width="640" xmlns="http://www.w3.org/2000/svg">
  <path d="M0 0h640v240H0z" fill="#0038a8"/>
  <path d="M0 240h640v240H0z" fill="#ce1126"/>
  <path d="M415.7 240L0 480V0" fill="#fff"/>
  <g fill="#fcd116" transform="translate(149.3 240) scale(5.33333)">
    <circle r="9"/>
    <g id="d">
      <g id="c">
        <g id="b">
          <path d="M-1 0h1-1z" transform="scale(19)"/>
          <path d="M-.9.1L0 0z" id="a" transform="scale(19.2381)"/>
          <use height="100%" transform="scale(1 -1)" width="100%" xlink:href="#a"/>
        </g>
        <use height="100%" transform="rotate(45)" width="100%" xlink:href="#b"/>
      </g>
      <use height="100%" transform="rotate(90)" width="100%" xlink:href="#c"/>
    </g>
    <use height="100%" transform="scale(-1)" width="100%" xlink:href="#d"/>
    <g transform="translate(-2)">
      <g id="f" transform="translate(38)">
        <path d="M5 0L1.6 1.2v3.6L-.7 1.9l-3.4 1L-2 0z" id="e"/>
        <use height="100%" transform="scale(1 -1)" width="100%" xlink:href="#e"/>
      </g>
      <use height="100%" transform="rotate(120)" width="100%" xlink:href="#f"/>
      <use height="100%" transform="rotate(-120)" width="100%" xlink:href="#f"/>
    </g>
  </g>
</svg>
